# xmcd
#
# Track frame offsets:
#	150
#	13695
#	29392
#	42777
#	56580
#	65215
#	76290
#	88650
#	95454
#	105472
#	116522
#	129060
#	144115
#	154305
#	165087
#	175930
#	190920
#	200855
#
# Disc length: 2821 seconds
#
# Revision: 0
# Processed by: cddbd v1.4PL0 Copyright (c) Steve Scherf et al.
# Submitted via: EasyCDDAExtractor 4.6.9.1
#
DISCID=e60b0312
DTITLE=Earl Scruggs - Classic Bluegrass Live: 1959-1966
DYEAR=2002
DGENRE=Bluegrass
TTITLE0=John Henry
TTITLE1=Flint Hill Special
TTITLE2=Girl In The Blue Velvet Band
TTITLE3=Love And Wealth
TTITLE4=Earl's Breakdown
TTITLE5=Gathering Flowers From The Hillside
TTITLE6=The Prisoner's Song
TTITLE7=Cumberland Gap
TTITLE8=Salty Dog Blues
TTITLE9=Before I Met You
TTITLE10=Cabin On The Hill
TTITLE11=Jimmy Brown The Newsboy
TTITLE12=Orange Blossom Special
TTITLE13=Will You Be Lonesome Too
TTITLE14=Foggy Mountain Chimes
TTITLE15=Wabash Cannonball
TTITLE16=When The Saints Go Marching In
TTITLE17=Ballad Of Jed Clampett
EXTD=
EXTT0=
EXTT1=
EXTT2=
EXTT3=
EXTT4=
EXTT5=
EXTT6=
EXTT7=
EXTT8=
EXTT9=
EXTT10=
EXTT11=
EXTT12=
EXTT13=
EXTT14=
EXTT15=
EXTT16=
EXTT17=
PLAYORDER=
